<mxfile host="app.diagrams.net" agent="Mozilla/5.0 (X11; Linux x86_64; rv:138.0) Gecko/20100101 Firefox/138.0" version="27.0.2">
  <diagram id="6o7R8WI_95QOYnaYofq7" name="sequenceReview">
    <mxGraphModel dx="872" dy="474" grid="1" gridSize="10" guides="1" tooltips="1" connect="1" arrows="1" fold="1" page="1" pageScale="1" pageWidth="827" pageHeight="1169" math="0" shadow="0">
      <root>
        <mxCell id="0" />
        <mxCell id="1" parent="0" />
        <mxCell id="3cWroGnRLjGSSQ9npHwc-1" value="User" style="shape=umlLifeline;perimeter=lifelinePerimeter;whiteSpace=wrap;html=1;container=1;dropTarget=0;collapsible=0;recursiveResize=0;outlineConnect=0;portConstraint=eastwest;newEdgeStyle={&quot;curved&quot;:0,&quot;rounded&quot;:0};" parent="1" vertex="1">
          <mxGeometry x="40" y="40" width="100" height="1220" as="geometry" />
        </mxCell>
        <mxCell id="sdSO3TjuPEIO-XTu2rBg-1" value="GUIOverview Edit-Export" style="shape=umlLifeline;perimeter=lifelinePerimeter;whiteSpace=wrap;html=1;container=1;dropTarget=0;collapsible=0;recursiveResize=0;outlineConnect=0;portConstraint=eastwest;newEdgeStyle={&quot;curved&quot;:0,&quot;rounded&quot;:0};fillColor=#CC99FF;" parent="1" vertex="1">
          <mxGeometry x="180" y="40" width="100" height="1220" as="geometry" />
        </mxCell>
        <mxCell id="vXllqV44Ms4Qup-847XZ-1" value="GUIReview" style="shape=umlLifeline;perimeter=lifelinePerimeter;whiteSpace=wrap;html=1;container=1;dropTarget=0;collapsible=0;recursiveResize=0;outlineConnect=0;portConstraint=eastwest;newEdgeStyle={&quot;curved&quot;:0,&quot;rounded&quot;:0};fillColor=#CC99FF;" parent="1" vertex="1">
          <mxGeometry x="320" y="40" width="100" height="1220" as="geometry" />
        </mxCell>
        <mxCell id="wNfxHrhwJK6WQYnyuLD_-1" value="ReviewController" style="shape=umlLifeline;perimeter=lifelinePerimeter;whiteSpace=wrap;html=1;container=1;dropTarget=0;collapsible=0;recursiveResize=0;outlineConnect=0;portConstraint=eastwest;newEdgeStyle={&quot;curved&quot;:0,&quot;rounded&quot;:0};fillColor=#FF6666;" parent="1" vertex="1">
          <mxGeometry x="475" y="40" width="100" height="1220" as="geometry" />
        </mxCell>
        <mxCell id="7bw2J9awnh-a9Mtc7DTv-5" value="" style="html=1;points=[[0,0,0,0,5],[0,1,0,0,-5],[1,0,0,0,5],[1,1,0,0,-5]];perimeter=orthogonalPerimeter;outlineConnect=0;targetShapes=umlLifeline;portConstraint=eastwest;newEdgeStyle={&quot;curved&quot;:0,&quot;rounded&quot;:0};" parent="wNfxHrhwJK6WQYnyuLD_-1" vertex="1">
          <mxGeometry x="45" y="940" width="10" height="230" as="geometry" />
        </mxCell>
        <mxCell id="QLQU8ikxIgQ8AFgVyM6n-1" value="Review" style="shape=umlLifeline;perimeter=lifelinePerimeter;whiteSpace=wrap;html=1;container=1;dropTarget=0;collapsible=0;recursiveResize=0;outlineConnect=0;portConstraint=eastwest;newEdgeStyle={&quot;curved&quot;:0,&quot;rounded&quot;:0};fillColor=#A9C4EB;" parent="1" vertex="1">
          <mxGeometry x="600" y="40" width="100" height="1220" as="geometry" />
        </mxCell>
        <mxCell id="7bw2J9awnh-a9Mtc7DTv-2" value="createReview()" style="html=1;verticalAlign=bottom;endArrow=block;curved=0;rounded=0;" parent="QLQU8ikxIgQ8AFgVyM6n-1" edge="1">
          <mxGeometry width="80" relative="1" as="geometry">
            <mxPoint x="-75" y="990" as="sourcePoint" />
            <mxPoint x="45" y="990" as="targetPoint" />
          </mxGeometry>
        </mxCell>
        <mxCell id="7bw2J9awnh-a9Mtc7DTv-3" value="" style="html=1;points=[[0,0,0,0,5],[0,1,0,0,-5],[1,0,0,0,5],[1,1,0,0,-5]];perimeter=orthogonalPerimeter;outlineConnect=0;targetShapes=umlLifeline;portConstraint=eastwest;newEdgeStyle={&quot;curved&quot;:0,&quot;rounded&quot;:0};" parent="QLQU8ikxIgQ8AFgVyM6n-1" vertex="1">
          <mxGeometry x="45" y="990" width="10" height="40" as="geometry" />
        </mxCell>
        <mxCell id="7bw2J9awnh-a9Mtc7DTv-4" value="Review" style="html=1;verticalAlign=bottom;endArrow=open;dashed=1;endSize=8;curved=0;rounded=0;" parent="QLQU8ikxIgQ8AFgVyM6n-1" edge="1">
          <mxGeometry relative="1" as="geometry">
            <mxPoint x="45" y="1030" as="sourcePoint" />
            <mxPoint x="-75" y="1030" as="targetPoint" />
          </mxGeometry>
        </mxCell>
        <mxCell id="uN7FusbamVn90vI89pp8-1" value="Click the &quot;Review&quot;&lt;div&gt;tab&lt;/div&gt;" style="html=1;verticalAlign=bottom;endArrow=block;curved=0;rounded=0;" parent="1" edge="1">
          <mxGeometry width="80" relative="1" as="geometry">
            <mxPoint x="90" y="130" as="sourcePoint" />
            <mxPoint x="229.5" y="130" as="targetPoint" />
          </mxGeometry>
        </mxCell>
        <mxCell id="E3J1IpuztBaY5lEKCPyL-1" value="Click the &quot;Activity&quot;&lt;div&gt;tab&lt;/div&gt;" style="html=1;verticalAlign=bottom;endArrow=block;curved=0;rounded=0;" parent="1" target="vXllqV44Ms4Qup-847XZ-1" edge="1">
          <mxGeometry width="80" relative="1" as="geometry">
            <mxPoint x="230" y="200" as="sourcePoint" />
            <mxPoint x="369.5" y="200" as="targetPoint" />
          </mxGeometry>
        </mxCell>
        <mxCell id="E3J1IpuztBaY5lEKCPyL-2" value="Click the &quot;Trip plan&quot;&lt;div&gt;tab&lt;/div&gt;" style="html=1;verticalAlign=bottom;endArrow=block;curved=0;rounded=0;" parent="1" edge="1">
          <mxGeometry x="0.0036" width="80" relative="1" as="geometry">
            <mxPoint x="225.5" y="760" as="sourcePoint" />
            <mxPoint x="365" y="760" as="targetPoint" />
            <mxPoint as="offset" />
          </mxGeometry>
        </mxCell>
        <mxCell id="E3J1IpuztBaY5lEKCPyL-3" value="par" style="shape=umlFrame;whiteSpace=wrap;html=1;pointerEvents=0;" parent="1" vertex="1">
          <mxGeometry x="330" y="220" width="230" height="170" as="geometry" />
        </mxCell>
        <mxCell id="E3J1IpuztBaY5lEKCPyL-4" value="" style="html=1;points=[[0,0,0,0,5],[0,1,0,0,-5],[1,0,0,0,5],[1,1,0,0,-5]];perimeter=orthogonalPerimeter;outlineConnect=0;targetShapes=umlLifeline;portConstraint=eastwest;newEdgeStyle={&quot;curved&quot;:0,&quot;rounded&quot;:0};" parent="1" vertex="1">
          <mxGeometry x="365" y="260" width="10" height="120" as="geometry" />
        </mxCell>
        <mxCell id="vXdGJotg5DhZjdQMYw2B-4" value="" style="html=1;points=[[0,0,0,0,5],[0,1,0,0,-5],[1,0,0,0,5],[1,1,0,0,-5]];perimeter=orthogonalPerimeter;outlineConnect=0;targetShapes=umlLifeline;portConstraint=eastwest;newEdgeStyle={&quot;curved&quot;:0,&quot;rounded&quot;:0};" parent="1" vertex="1">
          <mxGeometry x="520" y="265" width="10" height="30" as="geometry" />
        </mxCell>
        <mxCell id="vXdGJotg5DhZjdQMYw2B-6" value="writeText(text)" style="html=1;verticalAlign=bottom;endArrow=block;curved=0;rounded=0;exitX=0.5;exitY=0.071;exitDx=0;exitDy=0;exitPerimeter=0;entryX=0;entryY=0;entryDx=0;entryDy=5;entryPerimeter=0;" parent="1" target="vXdGJotg5DhZjdQMYw2B-4" edge="1">
          <mxGeometry width="80" relative="1" as="geometry">
            <mxPoint x="375" y="269.94000000000005" as="sourcePoint" />
            <mxPoint x="510" y="269.94000000000005" as="targetPoint" />
          </mxGeometry>
        </mxCell>
        <mxCell id="vXdGJotg5DhZjdQMYw2B-7" value="" style="html=1;points=[[0,0,0,0,5],[0,1,0,0,-5],[1,0,0,0,5],[1,1,0,0,-5]];perimeter=orthogonalPerimeter;outlineConnect=0;targetShapes=umlLifeline;portConstraint=eastwest;newEdgeStyle={&quot;curved&quot;:0,&quot;rounded&quot;:0};" parent="1" vertex="1">
          <mxGeometry x="520" y="305" width="10" height="30" as="geometry" />
        </mxCell>
        <mxCell id="vXdGJotg5DhZjdQMYw2B-8" value="" style="html=1;points=[[0,0,0,0,5],[0,1,0,0,-5],[1,0,0,0,5],[1,1,0,0,-5]];perimeter=orthogonalPerimeter;outlineConnect=0;targetShapes=umlLifeline;portConstraint=eastwest;newEdgeStyle={&quot;curved&quot;:0,&quot;rounded&quot;:0};" parent="1" vertex="1">
          <mxGeometry x="520" y="345" width="10" height="30" as="geometry" />
        </mxCell>
        <mxCell id="SQNdg4cmKrD0-2A85C0W-1" value="chooseMarkedActivity()" style="html=1;verticalAlign=bottom;endArrow=block;curved=0;rounded=0;exitX=0.5;exitY=0.071;exitDx=0;exitDy=0;exitPerimeter=0;entryX=0;entryY=0;entryDx=0;entryDy=5;entryPerimeter=0;" parent="1" target="vXdGJotg5DhZjdQMYw2B-7" edge="1">
          <mxGeometry width="80" relative="1" as="geometry">
            <mxPoint x="375" y="310.00000000000006" as="sourcePoint" />
            <mxPoint x="520" y="310.06" as="targetPoint" />
          </mxGeometry>
        </mxCell>
        <mxCell id="SQNdg4cmKrD0-2A85C0W-2" value="addPhotoToReview()" style="html=1;verticalAlign=bottom;endArrow=block;curved=0;rounded=0;exitX=0.5;exitY=0.071;exitDx=0;exitDy=0;exitPerimeter=0;entryX=0;entryY=0;entryDx=0;entryDy=5;entryPerimeter=0;" parent="1" target="vXdGJotg5DhZjdQMYw2B-8" edge="1">
          <mxGeometry width="80" relative="1" as="geometry">
            <mxPoint x="375" y="350.00000000000006" as="sourcePoint" />
            <mxPoint x="520" y="350" as="targetPoint" />
          </mxGeometry>
        </mxCell>
        <mxCell id="XUYTHOcsz0LuOhQnXBcM-1" value="&lt;span style=&quot;font-size: 12px; text-align: left; text-wrap-mode: wrap;&quot;&gt;postActivityReview(activity: Activity, text: String, pictures: List&amp;lt;Image&amp;gt;)&lt;/span&gt;" style="html=1;verticalAlign=bottom;endArrow=block;curved=0;rounded=0;" parent="1" edge="1">
          <mxGeometry width="80" relative="1" as="geometry">
            <mxPoint x="372.75" y="440" as="sourcePoint" />
            <mxPoint x="517.25" y="440" as="targetPoint" />
          </mxGeometry>
        </mxCell>
        <mxCell id="XUYTHOcsz0LuOhQnXBcM-2" value="alt" style="shape=umlFrame;whiteSpace=wrap;html=1;pointerEvents=0;" parent="1" vertex="1">
          <mxGeometry x="210" y="140" width="470" height="1140" as="geometry" />
        </mxCell>
        <mxCell id="XUYTHOcsz0LuOhQnXBcM-7" value="" style="line;strokeWidth=1;fillColor=none;align=left;verticalAlign=middle;spacingTop=-1;spacingLeft=3;spacingRight=3;rotatable=0;labelPosition=right;points=[];portConstraint=eastwest;strokeColor=inherit;" parent="1" vertex="1">
          <mxGeometry x="210" y="702" width="470" height="8" as="geometry" />
        </mxCell>
        <mxCell id="XUYTHOcsz0LuOhQnXBcM-9" value="[Activity Review]" style="text;align=center;fontStyle=1;verticalAlign=middle;spacingLeft=3;spacingRight=3;strokeColor=none;rotatable=0;points=[[0,0.5],[1,0.5]];portConstraint=eastwest;html=1;" parent="1" vertex="1">
          <mxGeometry x="430" y="140" width="80" height="26" as="geometry" />
        </mxCell>
        <mxCell id="XUYTHOcsz0LuOhQnXBcM-10" value="[Trip Plan Review]" style="text;align=center;fontStyle=1;verticalAlign=middle;spacingLeft=3;spacingRight=3;strokeColor=none;rotatable=0;points=[[0,0.5],[1,0.5]];portConstraint=eastwest;html=1;" parent="1" vertex="1">
          <mxGeometry x="420" y="710" width="80" height="26" as="geometry" />
        </mxCell>
        <mxCell id="XUYTHOcsz0LuOhQnXBcM-11" value="" style="html=1;points=[[0,0,0,0,5],[0,1,0,0,-5],[1,0,0,0,5],[1,1,0,0,-5]];perimeter=orthogonalPerimeter;outlineConnect=0;targetShapes=umlLifeline;portConstraint=eastwest;newEdgeStyle={&quot;curved&quot;:0,&quot;rounded&quot;:0};" parent="1" vertex="1">
          <mxGeometry x="520" y="430" width="10" height="230" as="geometry" />
        </mxCell>
        <mxCell id="XUYTHOcsz0LuOhQnXBcM-12" value="createReview()" style="html=1;verticalAlign=bottom;endArrow=block;curved=0;rounded=0;" parent="1" edge="1">
          <mxGeometry width="80" relative="1" as="geometry">
            <mxPoint x="530" y="480" as="sourcePoint" />
            <mxPoint x="649.5" y="480" as="targetPoint" />
          </mxGeometry>
        </mxCell>
        <mxCell id="tGoA3jAqYMWJKsip4tX8-1" value="" style="html=1;points=[[0,0,0,0,5],[0,1,0,0,-5],[1,0,0,0,5],[1,1,0,0,-5]];perimeter=orthogonalPerimeter;outlineConnect=0;targetShapes=umlLifeline;portConstraint=eastwest;newEdgeStyle={&quot;curved&quot;:0,&quot;rounded&quot;:0};" parent="1" vertex="1">
          <mxGeometry x="650" y="480" width="10" height="40" as="geometry" />
        </mxCell>
        <mxCell id="tGoA3jAqYMWJKsip4tX8-2" value="Review" style="html=1;verticalAlign=bottom;endArrow=open;dashed=1;endSize=8;curved=0;rounded=0;" parent="1" edge="1">
          <mxGeometry relative="1" as="geometry">
            <mxPoint x="650" y="520" as="sourcePoint" />
            <mxPoint x="530" y="520" as="targetPoint" />
          </mxGeometry>
        </mxCell>
        <mxCell id="tGoA3jAqYMWJKsip4tX8-3" value="alt" style="shape=umlFrame;whiteSpace=wrap;html=1;pointerEvents=0;" parent="1" vertex="1">
          <mxGeometry x="80" y="460" width="590" height="230" as="geometry" />
        </mxCell>
        <mxCell id="tGoA3jAqYMWJKsip4tX8-4" value="" style="line;strokeWidth=1;fillColor=none;align=left;verticalAlign=middle;spacingTop=-1;spacingLeft=3;spacingRight=3;rotatable=0;labelPosition=right;points=[];portConstraint=eastwest;strokeColor=inherit;" parent="1" vertex="1">
          <mxGeometry x="80" y="585" width="590" height="8" as="geometry" />
        </mxCell>
        <mxCell id="tGoA3jAqYMWJKsip4tX8-5" value="[Failed to post review]" style="text;align=center;fontStyle=1;verticalAlign=middle;spacingLeft=3;spacingRight=3;strokeColor=none;rotatable=0;points=[[0,0.5],[1,0.5]];portConstraint=eastwest;html=1;" parent="1" vertex="1">
          <mxGeometry x="230" y="593" width="130" height="26" as="geometry" />
        </mxCell>
        <mxCell id="tGoA3jAqYMWJKsip4tX8-6" value="[Successfully posted review]" style="text;align=center;fontStyle=1;verticalAlign=middle;spacingLeft=3;spacingRight=3;strokeColor=none;rotatable=0;points=[[0,0.5],[1,0.5]];portConstraint=eastwest;html=1;" parent="1" vertex="1">
          <mxGeometry x="235" y="460" width="162.5" height="20" as="geometry" />
        </mxCell>
        <mxCell id="xeWUyMjTOX19v5wT3Xyl-2" value="showSuccessMessage(message: string)" style="html=1;verticalAlign=bottom;endArrow=open;dashed=1;endSize=8;curved=0;rounded=0;" parent="1" edge="1">
          <mxGeometry relative="1" as="geometry">
            <mxPoint x="520" y="550" as="sourcePoint" />
            <mxPoint x="369.5" y="550" as="targetPoint" />
          </mxGeometry>
        </mxCell>
        <mxCell id="xeWUyMjTOX19v5wT3Xyl-3" value="showFailMessage(message: string)" style="html=1;verticalAlign=bottom;endArrow=open;dashed=1;endSize=8;curved=0;rounded=0;" parent="1" edge="1">
          <mxGeometry relative="1" as="geometry">
            <mxPoint x="520.25" y="640" as="sourcePoint" />
            <mxPoint x="369.75" y="640" as="targetPoint" />
          </mxGeometry>
        </mxCell>
        <mxCell id="Oet2q19BM9LgEs7cjmkF-1" value="Show success message" style="html=1;verticalAlign=bottom;endArrow=open;dashed=1;endSize=8;curved=0;rounded=0;" parent="1" target="3cWroGnRLjGSSQ9npHwc-1" edge="1">
          <mxGeometry x="-0.3705" y="-6" relative="1" as="geometry">
            <mxPoint x="367.5" y="576.25" as="sourcePoint" />
            <mxPoint x="130" y="580" as="targetPoint" />
            <mxPoint x="1" as="offset" />
          </mxGeometry>
        </mxCell>
        <mxCell id="Oet2q19BM9LgEs7cjmkF-2" value="Show failure message" style="html=1;verticalAlign=bottom;endArrow=open;dashed=1;endSize=8;curved=0;rounded=0;" parent="1" edge="1">
          <mxGeometry x="-0.3705" y="-6" relative="1" as="geometry">
            <mxPoint x="368.75" y="680.25" as="sourcePoint" />
            <mxPoint x="91.25" y="680" as="targetPoint" />
            <mxPoint x="1" as="offset" />
          </mxGeometry>
        </mxCell>
        <mxCell id="Oet2q19BM9LgEs7cjmkF-3" value="par" style="shape=umlFrame;whiteSpace=wrap;html=1;pointerEvents=0;" parent="1" vertex="1">
          <mxGeometry x="330" y="770" width="230" height="170" as="geometry" />
        </mxCell>
        <mxCell id="Oet2q19BM9LgEs7cjmkF-4" value="" style="html=1;points=[[0,0,0,0,5],[0,1,0,0,-5],[1,0,0,0,5],[1,1,0,0,-5]];perimeter=orthogonalPerimeter;outlineConnect=0;targetShapes=umlLifeline;portConstraint=eastwest;newEdgeStyle={&quot;curved&quot;:0,&quot;rounded&quot;:0};" parent="1" vertex="1">
          <mxGeometry x="365" y="810" width="10" height="120" as="geometry" />
        </mxCell>
        <mxCell id="Oet2q19BM9LgEs7cjmkF-5" value="" style="html=1;points=[[0,0,0,0,5],[0,1,0,0,-5],[1,0,0,0,5],[1,1,0,0,-5]];perimeter=orthogonalPerimeter;outlineConnect=0;targetShapes=umlLifeline;portConstraint=eastwest;newEdgeStyle={&quot;curved&quot;:0,&quot;rounded&quot;:0};" parent="1" vertex="1">
          <mxGeometry x="520" y="815" width="10" height="30" as="geometry" />
        </mxCell>
        <mxCell id="Oet2q19BM9LgEs7cjmkF-6" value="writeText(text)" style="html=1;verticalAlign=bottom;endArrow=block;curved=0;rounded=0;exitX=0.5;exitY=0.071;exitDx=0;exitDy=0;exitPerimeter=0;entryX=0;entryY=0;entryDx=0;entryDy=5;entryPerimeter=0;" parent="1" target="Oet2q19BM9LgEs7cjmkF-5" edge="1">
          <mxGeometry width="80" relative="1" as="geometry">
            <mxPoint x="375" y="819.94" as="sourcePoint" />
            <mxPoint x="510" y="819.94" as="targetPoint" />
          </mxGeometry>
        </mxCell>
        <mxCell id="Oet2q19BM9LgEs7cjmkF-7" value="" style="html=1;points=[[0,0,0,0,5],[0,1,0,0,-5],[1,0,0,0,5],[1,1,0,0,-5]];perimeter=orthogonalPerimeter;outlineConnect=0;targetShapes=umlLifeline;portConstraint=eastwest;newEdgeStyle={&quot;curved&quot;:0,&quot;rounded&quot;:0};" parent="1" vertex="1">
          <mxGeometry x="520" y="855" width="10" height="30" as="geometry" />
        </mxCell>
        <mxCell id="Oet2q19BM9LgEs7cjmkF-8" value="" style="html=1;points=[[0,0,0,0,5],[0,1,0,0,-5],[1,0,0,0,5],[1,1,0,0,-5]];perimeter=orthogonalPerimeter;outlineConnect=0;targetShapes=umlLifeline;portConstraint=eastwest;newEdgeStyle={&quot;curved&quot;:0,&quot;rounded&quot;:0};" parent="1" vertex="1">
          <mxGeometry x="520" y="895" width="10" height="30" as="geometry" />
        </mxCell>
        <mxCell id="Oet2q19BM9LgEs7cjmkF-9" value="chooseTripPlan()" style="html=1;verticalAlign=bottom;endArrow=block;curved=0;rounded=0;exitX=0.5;exitY=0.071;exitDx=0;exitDy=0;exitPerimeter=0;entryX=0;entryY=0;entryDx=0;entryDy=5;entryPerimeter=0;" parent="1" target="Oet2q19BM9LgEs7cjmkF-7" edge="1">
          <mxGeometry width="80" relative="1" as="geometry">
            <mxPoint x="375" y="860" as="sourcePoint" />
            <mxPoint x="520" y="860.06" as="targetPoint" />
          </mxGeometry>
        </mxCell>
        <mxCell id="Oet2q19BM9LgEs7cjmkF-10" value="addPhotoToReview()" style="html=1;verticalAlign=bottom;endArrow=block;curved=0;rounded=0;exitX=0.5;exitY=0.071;exitDx=0;exitDy=0;exitPerimeter=0;entryX=0;entryY=0;entryDx=0;entryDy=5;entryPerimeter=0;" parent="1" target="Oet2q19BM9LgEs7cjmkF-8" edge="1">
          <mxGeometry width="80" relative="1" as="geometry">
            <mxPoint x="375" y="900" as="sourcePoint" />
            <mxPoint x="520" y="900" as="targetPoint" />
          </mxGeometry>
        </mxCell>
        <mxCell id="7bw2J9awnh-a9Mtc7DTv-6" value="alt" style="shape=umlFrame;whiteSpace=wrap;html=1;pointerEvents=0;" parent="1" vertex="1">
          <mxGeometry x="80" y="1010" width="590" height="226.5" as="geometry" />
        </mxCell>
        <mxCell id="7bw2J9awnh-a9Mtc7DTv-7" value="" style="line;strokeWidth=1;fillColor=none;align=left;verticalAlign=middle;spacingTop=-1;spacingLeft=3;spacingRight=3;rotatable=0;labelPosition=right;points=[];portConstraint=eastwest;strokeColor=inherit;" parent="1" vertex="1">
          <mxGeometry x="80" y="1130" width="590" height="8" as="geometry" />
        </mxCell>
        <mxCell id="7bw2J9awnh-a9Mtc7DTv-8" value="[Successfully posted review]" style="text;align=center;fontStyle=1;verticalAlign=middle;spacingLeft=3;spacingRight=3;strokeColor=none;rotatable=0;points=[[0,0.5],[1,0.5]];portConstraint=eastwest;html=1;" parent="1" vertex="1">
          <mxGeometry x="235" y="1040" width="162.5" height="20" as="geometry" />
        </mxCell>
        <mxCell id="7bw2J9awnh-a9Mtc7DTv-9" value="showSuccessMessage(message: string)" style="html=1;verticalAlign=bottom;endArrow=open;dashed=1;endSize=8;curved=0;rounded=0;" parent="1" edge="1">
          <mxGeometry relative="1" as="geometry">
            <mxPoint x="520" y="1090" as="sourcePoint" />
            <mxPoint x="369.5" y="1090" as="targetPoint" />
          </mxGeometry>
        </mxCell>
        <mxCell id="7bw2J9awnh-a9Mtc7DTv-10" value="Show success message" style="html=1;verticalAlign=bottom;endArrow=open;dashed=1;endSize=8;curved=0;rounded=0;" parent="1" edge="1">
          <mxGeometry x="-0.3705" y="-6" relative="1" as="geometry">
            <mxPoint x="367.5" y="1116.25" as="sourcePoint" />
            <mxPoint x="90" y="1116" as="targetPoint" />
            <mxPoint x="1" as="offset" />
          </mxGeometry>
        </mxCell>
        <mxCell id="7bw2J9awnh-a9Mtc7DTv-15" value="showFailMessage(message: string)" style="html=1;verticalAlign=bottom;endArrow=open;dashed=1;endSize=8;curved=0;rounded=0;" parent="1" edge="1">
          <mxGeometry relative="1" as="geometry">
            <mxPoint x="520" y="1169" as="sourcePoint" />
            <mxPoint x="369.5" y="1169" as="targetPoint" />
          </mxGeometry>
        </mxCell>
        <mxCell id="7bw2J9awnh-a9Mtc7DTv-16" value="Show failure message" style="html=1;verticalAlign=bottom;endArrow=open;dashed=1;endSize=8;curved=0;rounded=0;" parent="1" edge="1">
          <mxGeometry x="-0.3705" y="-6" relative="1" as="geometry">
            <mxPoint x="368.5" y="1209.25" as="sourcePoint" />
            <mxPoint x="91" y="1209" as="targetPoint" />
            <mxPoint x="1" as="offset" />
          </mxGeometry>
        </mxCell>
        <mxCell id="7bw2J9awnh-a9Mtc7DTv-17" value="[Failed to post review]" style="text;align=center;fontStyle=1;verticalAlign=middle;spacingLeft=3;spacingRight=3;strokeColor=none;rotatable=0;points=[[0,0.5],[1,0.5]];portConstraint=eastwest;html=1;" parent="1" vertex="1">
          <mxGeometry x="235" y="1138" width="130" height="26" as="geometry" />
        </mxCell>
        <mxCell id="7bw2J9awnh-a9Mtc7DTv-1" value="&lt;span style=&quot;font-size: 12px; text-align: left; text-wrap-mode: wrap;&quot;&gt;postTripPlanReview(tripPlan: TripPlan, text: String, pictures: List&amp;lt;Image&amp;gt;)&lt;/span&gt;" style="html=1;verticalAlign=bottom;endArrow=block;curved=0;rounded=0;" parent="1" edge="1">
          <mxGeometry x="0.1073" width="80" relative="1" as="geometry">
            <mxPoint x="370" y="990" as="sourcePoint" />
            <mxPoint x="514.5" y="990" as="targetPoint" />
            <mxPoint as="offset" />
          </mxGeometry>
        </mxCell>
      </root>
    </mxGraphModel>
  </diagram>
</mxfile>
